<svg width="22" height="20" viewBox="0 0 22 20" fill="none" xmlns="http://www.w3.org/2000/svg">
<path d="M11.0079 0C16.8128 0 21.5178 3.69537 21.5178 8.25508C21.5178 12.8138 16.8128 16.5092 11.0089 16.5092C10.431 16.5081 9.85375 16.4711 9.28042 16.3982L4.86869 19.3059C4.36727 19.5732 4.19012 19.5439 4.39629 18.8894L5.28905 15.1799C2.40661 13.7074 0.5 11.1557 0.5 8.25508C0.5 3.69638 5.20397 0 11.0089 0M16.9219 8.12901L18.3931 6.69282C18.478 6.60398 18.5254 6.48539 18.5252 6.36206C18.5251 6.23872 18.4774 6.12025 18.3923 6.03162C18.3072 5.94298 18.1913 5.89108 18.069 5.88687C17.9467 5.88265 17.8275 5.92644 17.7366 6.00902L15.8069 7.89099V6.33579C15.8069 6.20954 15.7572 6.08845 15.6686 5.99918C15.58 5.9099 15.4598 5.85975 15.3345 5.85975C15.2092 5.85975 15.0891 5.9099 15.0005 5.99918C14.9119 6.08845 14.8621 6.20954 14.8621 6.33579V8.91468C14.8455 8.98837 14.8455 9.06489 14.8621 9.13859V10.5899C14.8621 10.7162 14.9119 10.8372 15.0005 10.9265C15.0891 11.0158 15.2092 11.0659 15.3345 11.0659C15.4598 11.0659 15.58 11.0158 15.6686 10.9265C15.7572 10.8372 15.8069 10.7162 15.8069 10.5899V9.21524L16.2343 8.7987L17.6635 10.8491C17.6992 10.9003 17.7445 10.9439 17.7969 10.9774C17.8493 11.011 17.9078 11.0338 17.9689 11.0445C18.0301 11.0553 18.0928 11.0538 18.1533 11.0402C18.2139 11.0266 18.2713 11.0011 18.3221 10.9651C18.3729 10.9291 18.4161 10.8834 18.4494 10.8306C18.4827 10.7778 18.5053 10.7189 18.516 10.6573C18.5267 10.5957 18.5252 10.5325 18.5117 10.4715C18.4982 10.4104 18.4728 10.3526 18.4372 10.3015L16.9219 8.12901ZM13.9614 10.0695H12.5001V6.35092C12.4945 6.22859 12.4424 6.11313 12.3545 6.02855C12.2666 5.94398 12.1498 5.89678 12.0282 5.89678C11.9067 5.89678 11.7899 5.94398 11.702 6.02855C11.6141 6.11313 11.5619 6.22859 11.5563 6.35092V10.5455C11.5563 10.8078 11.7665 11.0216 12.0277 11.0216H13.9614C14.0867 11.0216 14.2068 10.9714 14.2954 10.8821C14.384 10.7929 14.4338 10.6718 14.4338 10.5455C14.4338 10.4193 14.384 10.2982 14.2954 10.2089C14.2068 10.1196 14.0867 10.0695 13.9614 10.0695ZM8.09942 8.96915L8.79601 7.24652L9.43455 8.96814L8.09942 8.96915ZM10.6246 9.46032L10.6266 9.44418C10.6262 9.32427 10.5808 9.20895 10.4994 9.12144L9.45256 6.29747C9.40868 6.16289 9.32508 6.04502 9.21295 5.95959C9.10082 5.87417 8.96548 5.82526 8.82503 5.81941C8.68368 5.81934 8.54561 5.86236 8.42897 5.94282C8.31233 6.02329 8.22257 6.13742 8.17148 6.27023L6.50808 10.3801C6.46069 10.497 6.46133 10.6281 6.50985 10.7445C6.55837 10.8609 6.6508 10.9531 6.76679 11.0009C6.88279 11.0486 7.01286 11.048 7.12839 10.9991C7.24391 10.9502 7.33543 10.8571 7.38282 10.7402L7.7151 9.92022H9.78685L10.0851 10.7271C10.1054 10.7874 10.1376 10.843 10.1796 10.8905C10.2217 10.9381 10.2728 10.9767 10.3299 11.004C10.387 11.0313 10.449 11.0467 10.5121 11.0495C10.5753 11.0522 10.6383 11.0421 10.6976 11.0198C10.7568 10.9976 10.811 10.9635 10.8569 10.9198C10.9028 10.876 10.9396 10.8234 10.965 10.7651C10.9904 10.7067 11.0039 10.6438 11.0047 10.5801C11.0056 10.5165 10.9937 10.4532 10.9698 10.3942L10.6246 9.46032ZM7.29874 6.35596C7.29901 6.29346 7.287 6.23152 7.26342 6.17371C7.23983 6.1159 7.20514 6.06336 7.16132 6.01911C7.11751 5.97487 7.06545 5.93979 7.00813 5.9159C6.95081 5.89202 6.88937 5.87979 6.82735 5.87992H3.5796C3.45431 5.87992 3.33416 5.93007 3.24557 6.01935C3.15697 6.10862 3.1072 6.22971 3.1072 6.35596C3.1072 6.48222 3.15697 6.6033 3.24557 6.69257C3.33416 6.78185 3.45431 6.832 3.5796 6.832H4.74058V10.6C4.74058 10.7262 4.79035 10.8473 4.87894 10.9366C4.96754 11.0259 5.08769 11.076 5.21298 11.076C5.33827 11.076 5.45843 11.0259 5.54702 10.9366C5.63561 10.8473 5.68538 10.7262 5.68538 10.6V6.832H6.82634C6.88846 6.83227 6.95 6.82014 7.00744 6.79631C7.06487 6.77248 7.11705 6.73743 7.16097 6.69317C7.20489 6.64891 7.23968 6.59633 7.26332 6.53845C7.28697 6.48057 7.29901 6.41855 7.29874 6.35596Z" fill="#452020"/>
<ellipse cx="10.9122" cy="8.5388" rx="9.64117" ry="5.01341" fill="#452020"/>
</svg>
