<svg width="30" height="30" viewBox="0 0 30 30" fill="none" xmlns="http://www.w3.org/2000/svg">
<path d="M15.0026 6.02259C16.5216 4.68851 18.5 3.99765 20.5192 4.09617C22.5385 4.19469 24.4402 5.07485 25.8221 6.55046C27.2041 8.02607 27.9577 9.98138 27.9238 12.0027C27.8898 14.0241 27.0708 15.953 25.6401 17.3813L19.1089 23.9126L15.0001 28.0188L5.9001 18.9201L4.3626 17.3801C2.93232 15.9515 2.1138 14.0226 2.08018 12.0014C2.04656 9.98021 2.80046 8.02516 4.18243 6.54983C5.5644 5.07449 7.46606 4.19456 9.48517 4.09616C11.5043 3.99777 13.4837 4.68862 15.0026 6.02259Z" fill="#E52222"/>
</svg>
