<svg width="200" height="200" viewBox="0 0 200 200" fill="none" xmlns="http://www.w3.org/2000/svg">
<path d="M100 30V50C90.098 49.9823 80.4136 52.9051 72.1747 58.398C63.9358 63.8908 57.5133 71.7063 53.7216 80.8537C49.9298 90.001 48.9395 100.068 50.8762 109.779C52.8129 119.49 57.5893 128.407 64.6 135.4L50.5 149.5C40.7093 139.71 34.0417 127.237 31.3403 113.658C28.6389 100.078 30.0251 86.0029 35.3237 73.2115C40.6222 60.42 49.5951 49.4872 61.1075 41.7955C72.6198 34.1039 86.1546 29.999 100 30ZM149.5 50.5C159.291 60.2897 165.958 72.763 168.66 86.3423C171.361 99.9216 169.975 113.997 164.676 126.789C159.378 139.58 150.405 150.513 138.893 158.204C127.38 165.896 113.845 170.001 100 170V150C109.902 150.018 119.586 147.095 127.825 141.602C136.064 136.109 142.487 128.294 146.278 119.146C150.07 109.999 151.061 99.9318 149.124 90.2209C147.187 80.5101 142.411 71.593 135.4 64.6L149.5 50.5ZM100 200L60 160L100 120V200ZM100 80V0L140 40L100 80Z" fill="#76A65F"/>
<g filter="url(#filter0_f_105_465)">
<path d="M135 100C135 119.33 119.33 135 100 135C80.67 135 65 119.33 65 100C65 80.67 80.67 65 100 65C119.33 65 135 80.67 135 100Z" fill="#88F03E"/>
<path d="M135 100C135 119.33 119.33 135 100 135C80.67 135 65 119.33 65 100C65 80.67 80.67 65 100 65C119.33 65 135 80.67 135 100Z" fill="#88F03E"/>
<path d="M135 100C135 119.33 119.33 135 100 135C80.67 135 65 119.33 65 100C65 80.67 80.67 65 100 65C119.33 65 135 80.67 135 100Z" stroke="#88F03E" stroke-opacity="0.5" stroke-width="20"/>
</g>
<defs>
<filter id="filter0_f_105_465" x="51" y="51" width="98" height="98" filterUnits="userSpaceOnUse" color-interpolation-filters="sRGB">
<feFlood flood-opacity="0" result="BackgroundImageFix"/>
<feBlend mode="normal" in="SourceGraphic" in2="BackgroundImageFix" result="shape"/>
<feGaussianBlur stdDeviation="2" result="effect1_foregroundBlur_105_465"/>
</filter>
</defs>
</svg>
