<svg width="10" height="15" viewBox="0 0 10 18" fill="none" xmlns="http://www.w3.org/2000/svg">
<path d="M1.456 8.99804L9.171 16.714C9.31767 16.8607 9.39033 17.0367 9.389 17.242C9.38767 17.4474 9.313 17.6237 9.165 17.771C9.01767 17.9184 8.84133 17.992 8.636 17.992C8.43067 17.992 8.25433 17.9184 8.107 17.771L0.466 10.134C0.304 9.97271 0.186 9.79271 0.112 9.59404C0.0373333 9.39537 0 9.19671 0 8.99804C0 8.79937 0.0373333 8.60071 0.112 8.40204C0.186667 8.20337 0.304667 8.02337 0.466 7.86204L8.106 0.21804C8.25333 0.0707068 8.43067 -0.00195982 8.638 4.01786e-05C8.84467 0.00204018 9.02167 0.0767068 9.169 0.22404C9.31633 0.371373 9.39033 0.547707 9.391 0.75304C9.39167 0.958374 9.31767 1.13437 9.169 1.28104L1.456 8.99804Z" fill="black"/>
</svg>
