<svg width="25" height="24" viewBox="0 0 25 24" fill="none" xmlns="http://www.w3.org/2000/svg">
<path d="M12.5 9C11.7044 9 10.9413 9.31607 10.3787 9.87868C9.81607 10.4413 9.5 11.2044 9.5 12C9.5 12.7956 9.81607 13.5587 10.3787 14.1213C10.9413 14.6839 11.7044 15 12.5 15C13.2956 15 14.0587 14.6839 14.6213 14.1213C15.1839 13.5587 15.5 12.7956 15.5 12C15.5 11.2044 15.1839 10.4413 14.6213 9.87868C14.0587 9.31607 13.2956 9 12.5 9ZM12.5 17C11.1739 17 9.90215 16.4732 8.96447 15.5355C8.02678 14.5979 7.5 13.3261 7.5 12C7.5 10.6739 8.02678 9.40215 8.96447 8.46447C9.90215 7.52678 11.1739 7 12.5 7C13.8261 7 15.0979 7.52678 16.0355 8.46447C16.9732 9.40215 17.5 10.6739 17.5 12C17.5 13.3261 16.9732 14.5979 16.0355 15.5355C15.0979 16.4732 13.8261 17 12.5 17ZM12.5 4.5C7.5 4.5 3.23 7.61 1.5 12C3.23 16.39 7.5 19.5 12.5 19.5C17.5 19.5 21.77 16.39 23.5 12C21.77 7.61 17.5 4.5 12.5 4.5Z" fill="#545454"/>
</svg>
